<svg id="svg" xmlns="http://www.w3.org/2000/svg" xmlns:xlink="http://www.w3.org/1999/xlink" width="400" height="136.63366336633663" viewBox="0, 0, 400,136.63366336633663"><g id="svgg"><path id="path0" d="M91.270 3.186 C 89.396 5.059,89.800 5.813,95.433 10.961 C 99.009 14.230,102.124 18.445,104.887 23.756 C 107.256 28.310,110.459 32.834,112.424 34.402 C 116.564 37.705,117.005 39.577,112.966 36.701 C 111.384 35.575,109.714 34.651,109.253 34.647 C 108.793 34.644,107.106 33.958,105.506 33.124 C 101.593 31.083,89.551 27.084,84.653 26.198 C 82.475 25.804,79.802 25.260,78.713 24.990 C 77.624 24.719,73.725 24.350,70.050 24.168 C 61.354 23.740,55.970 22.235,51.033 18.854 C 40.489 11.633,34.765 10.609,40.588 16.985 C 42.232 18.785,43.436 20.681,43.264 21.198 C 42.749 22.744,51.491 26.827,56.616 27.434 C 59.240 27.744,61.386 28.430,61.386 28.957 C 61.386 29.484,62.078 29.649,62.923 29.325 C 63.889 28.955,64.209 29.140,63.786 29.825 C 63.144 30.863,70.307 30.412,75.743 29.071 C 77.317 28.683,77.424 28.788,76.266 29.584 C 74.162 31.030,75.696 32.043,78.068 30.773 C 79.168 30.185,80.877 29.722,81.866 29.744 C 83.063 29.772,82.540 30.384,80.301 31.577 C 78.452 32.562,77.360 33.628,77.873 33.946 C 78.387 34.263,79.454 34.113,80.245 33.613 C 82.589 32.131,83.712 32.549,81.625 34.127 C 79.157 35.994,80.338 36.025,84.685 34.209 C 89.322 32.271,89.004 32.922,83.665 36.295 C 78.799 39.369,77.767 41.093,81.683 39.604 C 84.556 38.512,84.924 39.300,82.426 41.196 C 79.738 43.236,82.628 42.870,87.797 40.515 C 91.033 39.041,92.621 38.760,93.386 39.525 C 94.152 40.290,94.118 40.594,93.267 40.594 C 92.614 40.594,92.079 41.278,92.079 42.114 C 92.079 43.335,92.475 43.422,94.092 42.557 C 97.139 40.926,103.859 43.436,101.353 45.269 C 100.400 45.965,98.036 46.566,96.098 46.604 C 94.160 46.643,91.698 47.016,90.628 47.435 C 88.426 48.296,81.188 46.754,81.188 45.424 C 81.188 44.946,80.627 44.554,79.941 44.554 C 79.255 44.554,78.144 43.674,77.472 42.598 C 75.350 39.200,68.856 36.651,60.661 36.001 C 49.453 35.111,43.837 31.040,39.113 20.378 C 37.927 17.700,36.680 15.956,36.343 16.501 C 32.872 22.117,49.213 37.619,58.614 37.629 C 64.569 37.636,71.287 39.232,71.287 40.641 C 71.287 41.825,71.568 41.849,65.774 40.166 C 62.652 39.260,57.071 38.814,50.299 38.929 L 39.707 39.109 36.300 35.391 C 25.024 23.089,3.054 30.019,2.987 45.899 C 2.972 49.363,3.178 49.670,5.198 49.185 C 12.695 47.385,14.568 47.408,17.895 49.341 C 19.761 50.426,24.030 52.695,27.382 54.386 C 32.205 56.817,34.987 59.264,40.707 66.105 C 44.683 70.861,48.400 75.080,48.968 75.480 C 51.576 77.318,66.232 74.527,69.534 71.564 C 71.084 70.173,71.305 70.181,71.867 71.647 C 72.209 72.538,73.110 73.267,73.868 73.267 C 74.627 73.267,75.248 73.713,75.248 74.257 C 75.248 74.802,76.254 75.248,77.485 75.248 C 78.715 75.248,80.278 76.139,80.958 77.228 C 83.951 82.020,99.229 79.373,107.213 72.678 C 111.669 68.942,118.908 65.736,124.752 64.909 C 134.691 63.503,172.426 63.755,175.743 65.248 L 178.713 66.586 175.743 67.494 C 174.109 67.994,168.294 68.124,162.821 67.783 C 147.040 66.800,145.721 67.333,136.031 78.599 C 133.941 81.029,132.114 82.178,130.341 82.178 C 124.663 82.178,114.084 95.908,108.943 109.949 C 106.865 115.622,103.887 121.865,100.308 128.053 C 98.479 131.213,99.513 131.589,106.186 130.192 C 109.591 129.479,116.832 128.154,122.277 127.248 C 138.828 124.493,143.795 121.503,154.622 107.778 C 158.948 102.294,162.141 99.088,162.962 99.403 C 163.694 99.684,164.556 99.487,164.878 98.967 C 165.200 98.446,166.500 98.020,167.766 98.020 C 170.737 98.020,172.607 95.099,175.815 85.446 C 180.097 72.558,184.156 69.074,192.492 71.129 C 206.269 74.526,238.294 76.172,249.752 74.072 C 252.844 73.506,253.466 73.672,253.471 75.062 C 253.487 80.480,264.732 92.913,273.139 96.810 C 294.232 106.586,314.846 98.311,326.160 75.525 C 330.767 66.247,331.836 65.447,339.533 65.519 C 344.719 65.568,347.073 65.074,350.402 63.236 C 367.835 53.616,365.853 54.245,376.410 54.981 C 385.606 55.622,393.069 54.532,393.069 52.548 C 393.069 52.128,386.244 51.480,377.902 51.108 L 362.735 50.431 356.180 53.499 C 341.701 60.274,333.338 58.739,324.805 47.739 C 318.597 39.738,318.346 39.482,313.028 35.732 C 298.843 25.730,272.215 29.583,263.595 42.886 C 262.118 45.165,260.633 47.252,260.296 47.525 C 259.262 48.359,256.437 54.278,256.420 55.644 C 256.379 59.154,254.824 59.567,250.398 57.241 C 246.211 55.040,245.121 54.948,222.624 54.891 C 200.221 54.835,198.941 54.728,193.030 52.416 C 186.037 49.681,175.248 40.086,175.248 36.601 C 175.248 35.486,174.356 32.828,173.267 30.693 C 172.178 28.558,171.287 26.002,171.287 25.012 C 171.287 20.437,168.615 18.812,161.082 18.807 C 153.190 18.802,151.347 17.793,146.151 10.634 C 141.388 4.072,137.038 2.614,123.267 2.960 C 102.208 3.490,100.558 3.477,96.468 2.740 C 93.794 2.258,92.047 2.408,91.270 3.186 M137.903 6.314 C 142.067 8.096,146.345 12.719,147.475 16.659 C 148.480 20.164,148.111 20.530,145.850 18.268 C 145.006 17.425,142.952 16.462,141.286 16.128 C 138.395 15.550,138.359 15.485,140.498 14.693 C 141.731 14.237,142.553 13.306,142.325 12.625 C 141.842 11.185,135.256 10.845,131.793 12.082 C 127.838 13.495,128.242 12.112,132.319 10.284 C 135.659 8.785,135.859 8.521,133.911 8.177 C 131.429 7.738,130.815 4.950,133.200 4.950 C 134.034 4.950,136.151 5.564,137.903 6.314 M110.454 11.418 C 108.000 13.274,109.025 13.264,113.519 11.386 C 115.474 10.569,118.022 9.924,119.180 9.953 C 120.339 9.981,118.168 11.295,114.356 12.871 C 110.545 14.448,108.189 15.761,109.122 15.790 C 110.055 15.818,113.078 14.950,115.842 13.861 C 118.605 12.772,121.384 11.881,122.017 11.881 C 124.158 11.881,121.383 13.584,115.842 15.669 C 112.730 16.840,111.316 17.741,112.542 17.770 C 113.722 17.799,116.766 16.931,119.307 15.842 C 124.778 13.496,125.363 13.417,123.861 15.227 C 123.238 15.978,121.513 16.857,120.027 17.181 C 113.102 18.687,113.326 20.366,120.638 21.753 C 129.719 23.475,132.619 25.946,124.897 25.382 C 120.240 25.041,117.681 24.264,115.049 22.391 C 110.698 19.296,109.255 20.058,113.319 23.305 C 117.319 26.502,124.652 28.102,131.666 27.308 C 136.708 26.738,138.116 26.996,142.970 29.376 C 149.174 32.419,149.931 33.663,145.576 33.663 C 143.405 33.663,142.782 33.285,143.191 32.218 C 143.765 30.723,142.001 30.752,137.297 32.313 C 136.115 32.705,134.035 33.058,132.673 33.097 C 124.513 33.331,136.433 37.100,151.634 39.092 C 156.101 39.678,161.020 42.611,159.718 43.912 C 159.365 44.266,160.572 44.554,162.400 44.554 C 165.569 44.554,165.635 44.626,163.803 46.086 C 161.999 47.524,162.093 47.578,165.347 46.962 C 167.252 46.601,169.380 45.848,170.073 45.289 C 170.767 44.730,171.585 44.522,171.891 44.828 C 172.197 45.134,171.505 45.888,170.354 46.504 C 169.203 47.120,168.519 48.040,168.833 48.549 C 169.326 49.346,164.872 52.723,161.881 53.821 C 161.337 54.021,161.187 54.504,161.548 54.894 C 161.909 55.284,163.371 54.839,164.796 53.905 C 167.929 51.853,169.063 52.483,166.466 54.834 C 162.857 58.100,157.631 58.097,156.396 54.829 C 153.800 47.960,147.053 44.267,141.178 46.501 C 138.552 47.499,138.057 47.304,135.141 44.120 C 131.944 40.630,128.024 38.546,124.936 38.694 C 124.018 38.738,125.050 39.604,127.228 40.617 C 129.406 41.631,131.188 42.874,131.188 43.379 C 131.188 44.614,139.482 51.485,140.973 51.485 C 141.624 51.485,143.847 52.348,145.915 53.402 C 147.983 54.456,150.259 55.094,150.975 54.819 C 151.690 54.545,152.569 54.796,152.929 55.378 C 153.817 56.816,146.188 56.753,141.089 55.281 C 137.397 54.214,137.297 54.093,139.604 53.491 C 141.666 52.954,141.291 52.735,137.359 52.182 C 131.947 51.421,126.400 48.864,127.234 47.515 C 127.545 47.011,126.936 46.060,125.880 45.400 C 124.824 44.741,124.162 43.676,124.408 43.034 C 124.654 42.392,123.496 41.304,121.834 40.615 C 120.172 39.927,118.812 38.824,118.812 38.164 C 118.812 37.505,117.091 35.582,114.988 33.892 C 112.885 32.202,109.941 28.452,108.446 25.558 C 106.950 22.665,104.866 18.879,103.813 17.145 L 101.900 13.992 105.158 12.531 C 111.405 9.727,113.183 9.354,110.454 11.418 M135.644 17.307 C 135.644 18.246,127.549 21.888,126.411 21.461 C 125.771 21.220,127.252 20.090,129.703 18.949 C 134.226 16.844,135.644 16.452,135.644 17.307 M126.733 18.705 C 126.733 19.983,122.251 20.913,120.128 20.076 C 118.627 19.484,118.826 19.250,121.287 18.709 C 125.727 17.733,126.733 17.732,126.733 18.705 M136.139 20.738 C 131.291 23.032,131.969 23.282,137.624 21.287 C 142.887 19.430,144.554 19.414,144.554 21.220 C 144.554 22.991,142.081 23.805,136.347 23.920 C 129.752 24.052,128.506 22.765,133.218 20.685 C 138.526 18.342,141.103 18.389,136.139 20.738 M157.302 20.872 C 159.608 20.988,153.439 23.664,150.743 23.718 C 149.517 23.742,148.515 23.168,148.515 22.442 C 148.515 20.283,149.814 19.616,152.840 20.221 C 154.409 20.535,156.417 20.828,157.302 20.872 M167.997 22.377 C 168.332 23.249,167.984 24.356,167.223 24.837 C 165.122 26.168,164.352 25.916,165.041 24.122 C 165.555 22.781,165.122 22.580,162.534 22.960 C 160.364 23.279,159.406 23.017,159.406 22.106 C 159.406 20.102,167.219 20.349,167.997 22.377 M146.535 23.656 C 146.535 24.143,145.755 24.859,144.802 25.248 C 143.211 25.897,143.232 26.022,145.050 26.769 C 146.336 27.299,146.510 27.603,145.545 27.638 C 142.350 27.755,140.919 25.835,143.011 24.239 C 145.189 22.577,146.535 22.355,146.535 23.656 M156.240 24.288 C 155.951 24.577,154.236 25.238,152.429 25.756 C 150.622 26.274,149.559 26.304,150.067 25.821 C 151.304 24.647,157.394 23.134,156.240 24.288 M160.396 26.646 C 160.396 27.142,158.616 27.849,156.441 28.217 C 154.265 28.584,152.223 29.310,151.902 29.829 C 151.302 30.800,154.468 30.319,159.814 28.627 C 161.400 28.125,162.912 27.928,163.174 28.190 C 163.435 28.452,163.029 28.864,162.270 29.106 C 154.924 31.449,154.862 31.514,160.396 31.083 L 165.842 30.658 161.914 32.183 C 158.326 33.577,157.579 33.561,153.251 32.005 C 146.602 29.614,146.960 28.316,154.688 26.792 C 160.548 25.637,160.396 25.641,160.396 26.646 M24.869 31.835 C 31.122 33.708,33.043 36.634,28.022 36.634 C 23.027 36.634,11.345 40.812,8.273 43.698 C 5.199 46.586,4.335 45.469,6.081 40.864 C 8.647 34.095,17.773 29.709,24.869 31.835 M172.323 34.279 C 173.355 36.994,172.171 39.619,169.928 39.589 C 169.269 39.580,169.361 39.225,170.154 38.723 C 171.266 38.019,171.223 37.456,169.903 35.442 C 168.391 33.134,168.616 31.683,170.487 31.683 C 170.954 31.683,171.780 32.851,172.323 34.279 M164.851 33.663 C 164.515 34.208,163.263 34.622,162.070 34.584 C 159.979 34.517,159.972 34.484,161.881 33.663 C 164.606 32.492,165.575 32.492,164.851 33.663 M155.446 36.634 C 155.446 37.178,154.554 37.624,153.465 37.624 C 152.376 37.624,151.485 37.178,151.485 36.634 C 151.485 36.089,152.376 35.644,153.465 35.644 C 154.554 35.644,155.446 36.089,155.446 36.634 M64.851 44.262 C 60.348 46.702,63.602 46.960,68.346 44.539 C 70.622 43.378,72.221 42.855,71.898 43.376 C 71.344 44.274,63.037 48.515,61.834 48.515 C 61.523 48.515,61.545 48.069,61.881 47.525 C 62.218 46.980,61.687 46.516,60.702 46.493 C 58.840 46.450,64.895 42.659,66.832 42.655 C 67.376 42.654,66.485 43.377,64.851 44.262 M43.142 50.320 C 40.066 50.952,41.678 52.331,46.769 53.423 C 49.621 54.035,52.851 55.097,53.948 55.784 C 55.044 56.471,57.819 57.634,60.116 58.367 C 65.498 60.087,64.628 61.390,58.110 61.371 C 54.414 61.360,53.388 61.085,54.455 60.391 C 55.449 59.746,53.470 59.629,48.479 60.039 L 41.016 60.651 35.380 56.436 C 29.890 52.330,29.014 50.495,32.546 50.495 C 33.500 50.495,35.300 49.117,36.545 47.433 L 38.809 44.371 41.754 47.185 C 44.032 49.361,44.347 50.073,43.142 50.320 M47.883 46.040 C 47.177 47.878,48.269 47.878,51.485 46.040 C 54.354 44.400,55.446 44.219,55.446 45.386 C 55.446 45.843,54.332 46.724,52.970 47.345 C 51.609 47.965,50.495 48.920,50.495 49.467 C 50.495 50.014,52.166 49.563,54.208 48.465 L 57.921 46.469 55.143 48.977 C 51.657 52.124,50.105 52.126,46.739 48.985 C 44.479 46.876,44.292 46.337,45.545 45.535 C 47.694 44.160,48.535 44.341,47.883 46.040 M122.980 46.988 C 124.227 48.327,127.698 50.771,130.693 52.420 L 136.139 55.417 129.898 55.042 C 123.649 54.667,122.774 54.238,117.079 48.762 C 115.571 47.313,113.481 46.510,111.094 46.465 C 105.626 46.361,110.062 44.713,116.049 44.624 C 119.780 44.568,121.165 45.041,122.980 46.988 M30.693 47.443 C 26.558 49.603,21.947 51.088,23.086 49.892 C 23.975 48.959,31.592 45.785,33.168 45.691 C 33.713 45.659,32.599 46.447,30.693 47.443 M71.959 47.183 C 70.590 48.552,63.366 51.345,63.366 50.505 C 63.366 49.308,65.070 48.342,68.725 47.468 C 70.407 47.066,71.968 46.692,72.195 46.636 C 72.422 46.580,72.315 46.827,71.959 47.183 M80.197 48.267 C 80.194 49.570,67.472 55.923,66.640 55.036 C 66.201 54.568,66.287 54.012,66.832 53.802 C 67.376 53.592,70.272 52.121,73.267 50.533 C 79.068 47.457,80.199 47.087,80.197 48.267 M149.505 49.010 C 150.995 50.806,151.077 50.805,145.545 49.061 L 141.089 47.657 144.681 47.591 C 146.737 47.553,148.799 48.160,149.505 49.010 M161.489 50.586 C 159.096 51.648,157.411 52.790,157.745 53.124 C 158.421 53.801,163.787 51.846,166.804 49.824 C 169.744 47.854,166.646 48.298,161.489 50.586 M57.863 51.064 C 55.989 52.583,55.996 52.610,58.167 52.147 C 61.333 51.471,62.004 53.273,58.879 54.057 C 55.281 54.960,53.267 52.854,55.882 50.923 C 58.501 48.991,60.264 49.116,57.863 51.064 M70.743 50.384 C 70.225 50.867,68.688 51.531,67.327 51.859 C 65.254 52.359,65.334 52.223,67.822 51.025 C 71.321 49.339,72.026 49.185,70.743 50.384 M295.371 51.733 C 295.923 54.021,294.931 60.935,293.692 63.443 C 293.309 64.218,293.569 64.034,294.270 63.035 C 294.971 62.036,296.360 60.256,297.357 59.078 L 299.170 56.938 298.589 59.905 L 298.009 62.871 299.455 59.901 C 300.250 58.267,300.921 56.347,300.945 55.635 C 301.041 52.860,302.973 55.743,303.014 58.722 L 303.057 61.881 304.408 58.095 C 306.341 52.673,306.919 52.543,307.020 57.508 L 307.109 61.881 308.038 58.663 C 309.473 53.695,310.232 54.845,309.670 61.139 C 309.236 66.005,309.308 66.364,310.170 63.614 C 310.724 61.844,311.559 60.396,312.024 60.396 C 313.166 60.396,313.095 63.640,311.884 66.824 C 311.228 68.549,311.228 69.216,311.884 68.810 C 312.427 68.474,312.871 67.558,312.871 66.773 C 312.871 65.989,313.317 65.347,313.861 65.347 C 315.272 65.347,315.087 67.818,313.366 71.935 C 311.459 76.500,311.423 76.390,314.551 75.605 L 317.221 74.935 315.010 77.746 C 311.924 81.669,308.651 83.872,308.148 82.364 C 307.591 80.692,305.941 80.904,305.941 82.648 C 305.941 84.432,300.978 87.129,297.695 87.129 C 296.373 87.129,294.737 87.797,294.059 88.614 C 293.381 89.431,292.347 90.099,291.760 90.099 C 291.065 90.099,291.107 89.685,291.881 88.911 C 293.498 87.294,293.374 86.139,291.584 86.139 C 290.767 86.139,290.099 86.770,290.099 87.541 C 290.099 88.313,289.542 89.174,288.861 89.455 C 288.112 89.764,288.502 90.233,289.851 90.643 C 291.077 91.015,292.079 91.761,292.079 92.301 C 292.079 92.852,291.321 92.962,290.347 92.553 C 289.394 92.152,287.611 91.607,286.386 91.341 C 283.641 90.746,283.587 89.933,286.139 87.624 C 287.228 86.638,288.119 85.455,288.119 84.995 C 288.119 83.157,286.372 84.357,283.606 88.095 C 282.004 90.261,280.136 92.043,279.455 92.056 C 278.775 92.069,278.218 92.609,278.218 93.256 C 278.218 93.903,277.327 93.476,276.238 92.307 C 274.042 89.950,273.540 88.271,275.523 89.917 C 276.467 90.700,277.638 90.099,280.130 87.550 C 281.968 85.670,283.292 84.001,283.073 83.841 C 282.853 83.681,280.780 82.090,278.465 80.306 C 275.331 77.889,274.257 77.462,274.257 78.630 C 274.257 80.680,272.623 80.641,271.460 78.562 C 270.482 76.815,265.347 75.750,265.347 77.295 C 265.347 77.803,264.901 78.218,264.356 78.218 C 263.812 78.218,263.366 77.550,263.366 76.733 C 263.366 75.916,262.698 75.248,261.881 75.248 C 259.700 75.248,260.071 71.531,262.376 70.297 C 263.465 69.714,264.356 68.585,264.356 67.787 C 264.356 66.017,266.005 65.861,266.605 67.574 C 266.916 68.464,267.634 68.282,269.162 66.926 C 270.980 65.312,271.287 65.268,271.287 66.620 C 271.287 67.489,271.738 68.479,272.290 68.820 C 272.906 69.201,273.193 68.189,273.033 66.194 C 272.626 61.127,275.977 60.968,276.503 66.029 C 276.827 69.153,276.923 68.893,277.061 64.521 C 277.227 59.275,279.247 57.544,280.047 61.963 C 280.769 65.955,282.178 65.665,282.178 61.526 C 282.178 56.493,283.781 56.888,284.773 62.163 L 285.464 65.842 286.544 62.695 C 287.138 60.964,287.958 59.219,288.366 58.817 C 288.775 58.415,289.109 56.850,289.109 55.339 C 289.109 53.828,289.593 52.293,290.184 51.928 C 290.933 51.465,291.096 53.025,290.722 57.067 C 290.426 60.259,290.439 61.980,290.751 60.891 C 291.063 59.802,291.817 58.597,292.426 58.214 C 293.035 57.831,293.486 55.714,293.428 53.511 C 293.315 49.190,294.498 48.107,295.371 51.733 M79.752 51.406 C 79.145 52.388,70.449 57.440,69.430 57.403 C 68.857 57.383,79.328 50.567,80.009 50.517 C 80.177 50.505,80.062 50.905,79.752 51.406 M93.069 53.465 C 91.708 54.530,90.149 55.408,89.604 55.417 C 89.059 55.426,89.950 54.547,91.584 53.465 C 95.386 50.948,96.288 50.948,93.069 53.465 M182.030 52.572 C 185.375 53.738,186.468 55.998,183.184 54.955 C 182.103 54.612,179.430 54.307,177.243 54.277 C 175.056 54.247,173.267 53.903,173.267 53.514 C 173.267 51.262,177.094 50.851,182.030 52.572 M367.901 52.347 C 367.608 52.822,365.911 53.501,364.130 53.857 C 362.348 54.213,358.663 55.966,355.941 57.753 C 347.510 63.286,341.660 64.807,335.411 63.090 C 333.346 62.523,332.230 62.820,330.708 64.341 C 328.224 66.825,327.723 66.839,327.723 64.423 C 327.723 61.938,330.563 61.097,336.135 61.932 C 339.082 62.374,341.102 62.198,342.045 61.415 C 342.833 60.761,343.965 60.527,344.561 60.895 C 345.647 61.566,348.976 60.144,355.446 56.243 C 360.462 53.219,369.016 50.544,367.901 52.347 M83.168 53.283 C 83.168 54.062,76.613 58.160,73.029 59.622 C 69.178 61.192,71.616 58.267,76.485 55.475 C 81.930 52.352,83.168 51.946,83.168 53.283 M261.881 54.455 C 261.177 56.674,263.805 57.365,264.707 55.198 C 265.070 54.326,265.695 54.545,266.822 55.941 C 268.323 57.799,268.290 57.941,266.289 58.250 C 264.546 58.520,264.233 59.108,264.580 61.468 C 265.087 64.925,264.699 65.024,261.697 62.204 C 259.137 59.798,258.804 57.372,260.634 54.442 C 262.203 51.930,262.681 51.936,261.881 54.455 M39.317 56.436 C 39.882 58.597,40.564 58.700,48.242 57.777 C 54.753 56.995,54.247 55.566,47.683 56.197 C 44.698 56.484,42.569 56.238,42.149 55.559 C 40.948 53.616,38.757 54.294,39.317 56.436 M64.741 56.009 C 65.187 57.171,64.797 57.483,63.191 57.246 C 62.012 57.073,60.863 56.374,60.639 55.693 C 60.036 53.863,64.035 54.171,64.741 56.009 M84.649 55.453 C 84.310 56.001,82.613 57.172,80.878 58.054 C 77.290 59.878,77.854 58.959,81.923 56.351 C 85.206 54.246,85.443 54.168,84.649 55.453 M86.720 58.028 C 86.378 60.354,81.514 63.098,80.150 61.734 C 79.374 60.958,79.991 60.090,82.358 58.628 C 86.441 56.108,87.013 56.029,86.720 58.028 M175.165 58.061 C 175.392 58.256,173.721 58.416,171.452 58.416 C 169.183 58.416,167.327 57.998,167.327 57.488 C 167.327 56.663,174.117 57.160,175.165 58.061 M190.051 60.413 C 192.328 61.071,192.392 61.218,190.710 61.915 C 189.634 62.362,188.071 62.204,187.011 61.542 C 186.001 60.912,183.944 60.365,182.439 60.326 C 180.934 60.288,178.812 59.850,177.723 59.353 C 175.458 58.319,185.916 59.218,190.051 60.413 M239.604 59.406 C 238.243 59.842,234.233 60.243,230.693 60.297 C 227.153 60.352,221.138 61.057,217.326 61.864 C 208.356 63.764,205.252 63.686,210.396 61.690 C 213.956 60.309,227.626 58.820,238.119 58.670 C 241.463 58.622,241.694 58.736,239.604 59.406 M88.257 61.419 C 86.971 62.490,85.474 63.366,84.929 63.366 C 84.385 63.366,84.991 62.490,86.276 61.419 C 87.562 60.348,89.059 59.472,89.604 59.472 C 90.149 59.472,89.542 60.348,88.257 61.419 M250.236 61.017 C 251.456 61.344,252.229 61.973,251.956 62.416 C 251.480 63.185,245.845 62.017,244.750 60.922 C 244.046 60.217,247.475 60.277,250.236 61.017 M71.701 61.987 C 73.797 62.791,73.694 64.328,71.535 64.471 C 70.031 64.571,70.050 64.650,71.678 65.067 C 73.186 65.453,73.283 65.719,72.173 66.422 C 70.509 67.476,76.426 67.647,80.145 66.652 C 82.064 66.139,82.228 65.884,80.933 65.428 C 80.034 65.111,86.407 64.835,95.095 64.816 C 103.783 64.796,110.891 65.069,110.891 65.423 C 110.891 67.328,94.993 72.791,87.129 73.589 C 84.563 73.849,84.973 73.982,88.704 74.099 C 91.476 74.186,95.911 73.605,98.559 72.809 C 106.835 70.318,104.979 72.647,96.311 75.629 C 90.337 77.685,84.035 77.105,81.166 74.235 C 79.089 72.159,79.584 71.287,82.838 71.287 C 84.109 71.287,85.147 70.953,85.145 70.545 C 85.143 70.136,80.910 69.771,75.739 69.732 C 70.568 69.694,66.337 70.039,66.337 70.499 C 66.337 73.719,51.234 74.798,47.778 71.825 C 44.597 69.089,45.299 66.337,49.177 66.337 C 52.146 66.337,51.327 64.803,48.020 64.170 C 46.931 63.961,49.652 63.704,54.067 63.599 C 58.482 63.493,63.160 62.980,64.463 62.459 C 67.302 61.324,69.584 61.175,71.701 61.987 M242.327 66.455 C 244.097 67.019,245.545 67.891,245.545 68.394 C 245.545 69.574,245.993 69.624,236.139 67.327 C 231.468 66.238,226.215 65.302,224.467 65.248 C 221.513 65.156,221.463 65.100,223.762 64.460 C 226.505 63.697,237.322 64.859,242.327 66.455 M320.889 68.038 C 319.988 69.586,319.859 69.488,319.832 67.244 C 319.816 65.837,320.136 64.349,320.545 63.938 C 321.734 62.738,322.016 66.101,320.889 68.038 M213.861 66.796 L 220.297 68.123 212.705 68.220 C 204.027 68.331,199.843 67.380,203.960 66.233 C 207.222 65.325,206.541 65.286,213.861 66.796 M75.743 68.317 C 69.984 69.348,76.088 69.388,82.673 68.362 C 87.373 67.630,87.423 67.592,83.663 67.600 C 81.485 67.604,77.921 67.927,75.743 68.317 M154.148 75.990 C 153.899 76.943,153.695 76.163,153.695 74.257 C 153.695 72.351,153.899 71.572,154.148 72.525 C 154.397 73.478,154.397 75.037,154.148 75.990 M152.475 74.694 C 152.475 77.989,150.832 78.774,150.255 75.754 C 149.779 73.267,150.177 72.277,151.650 72.277 C 152.104 72.277,152.475 73.365,152.475 74.694 M163.366 74.316 C 163.366 75.437,162.921 76.079,162.376 75.743 C 161.832 75.406,161.386 74.489,161.386 73.704 C 161.386 72.919,161.832 72.277,162.376 72.277 C 162.921 72.277,163.366 73.195,163.366 74.316 M148.515 76.733 C 148.515 78.094,148.069 79.208,147.525 79.208 C 146.980 79.208,146.535 78.094,146.535 76.733 C 146.535 75.371,146.980 74.257,147.525 74.257 C 148.069 74.257,148.515 75.371,148.515 76.733 M173.762 84.158 C 171.751 90.214,171.498 90.159,172.067 83.783 C 172.357 80.526,172.779 79.397,173.362 80.317 C 174.030 81.373,174.231 81.252,174.242 79.785 C 174.251 78.742,174.526 78.156,174.853 78.484 C 175.181 78.811,174.690 81.365,173.762 84.158 M142.194 83.721 C 141.462 85.629,139.604 85.546,139.604 83.605 C 139.604 82.756,140.050 82.337,140.594 82.673 C 141.139 83.010,141.636 82.256,141.699 80.999 C 141.788 79.231,141.919 79.119,142.278 80.503 C 142.533 81.488,142.495 82.936,142.194 83.721 M271.676 80.774 C 272.606 83.196,272.404 83.516,270.792 82.178 C 269.146 80.812,268.822 79.208,270.191 79.208 C 270.677 79.208,271.346 79.913,271.676 80.774 M167.460 91.089 C 167.999 88.816,168.058 88.868,168.182 91.726 C 168.296 94.367,167.031 96.040,164.918 96.040 C 164.772 96.040,164.738 94.814,164.844 93.317 C 164.950 91.819,165.185 88.144,165.366 85.149 L 165.696 79.703 166.285 86.634 C 166.674 91.211,167.073 92.724,167.460 91.089 M277.228 82.376 C 277.228 83.976,276.935 84.262,276.126 83.453 C 275.520 82.847,275.323 81.866,275.689 81.274 C 276.713 79.617,277.228 79.986,277.228 82.376 M269.719 82.815 C 270.063 83.710,270.140 84.645,269.891 84.894 C 269.104 85.681,267.327 84.101,267.327 82.615 C 267.327 80.673,268.949 80.808,269.719 82.815 M315.842 81.638 C 315.842 82.347,306.743 89.109,305.790 89.109 C 305.319 89.109,305.490 88.218,306.170 87.129 C 306.851 86.040,307.890 85.149,308.481 85.149 C 309.071 85.149,310.412 84.284,311.460 83.227 C 313.189 81.485,315.842 80.522,315.842 81.638 M273.967 86.570 C 272.216 88.321,270.297 88.614,270.297 87.129 C 270.297 86.584,270.965 86.139,271.782 86.139 C 272.599 86.139,273.267 85.381,273.267 84.455 C 273.267 83.199,273.553 83.058,274.392 83.897 C 275.231 84.736,275.123 85.414,273.967 86.570 M163.733 90.678 C 163.115 96.446,156.436 104.431,156.436 99.401 C 156.436 98.577,156.835 98.149,157.322 98.451 C 158.530 99.197,159.403 96.618,159.421 92.246 C 159.429 90.248,159.902 87.946,160.471 87.129 C 161.245 86.018,161.352 86.431,160.893 88.767 C 160.539 90.569,160.723 92.165,161.328 92.538 C 161.976 92.939,162.376 92.060,162.376 90.238 C 162.376 87.198,163.324 83.786,163.986 84.448 C 164.192 84.654,164.078 87.458,163.733 90.678 M301.251 91.089 C 298.979 94.560,292.458 97.452,294.554 94.059 C 294.891 93.515,295.725 93.069,296.407 93.069 C 297.089 93.069,298.636 91.733,299.843 90.099 C 303.104 85.689,304.256 86.500,301.251 91.089 M154.514 96.182 L 153.472 99.505 153.964 96.163 C 154.234 94.325,154.522 91.652,154.604 90.223 L 154.752 87.624 155.154 90.241 C 155.376 91.681,155.088 94.354,154.514 96.182 M140.941 92.839 C 140.076 96.147,138.890 95.504,139.404 92.005 C 139.650 90.330,140.226 89.335,140.685 89.794 C 141.144 90.253,141.259 91.623,140.941 92.839 M297.388 90.594 C 296.785 92.164,295.050 92.654,295.050 91.254 C 295.050 90.207,296.132 89.109,297.164 89.109 C 297.600 89.109,297.701 89.777,297.388 90.594 M152.594 97.525 L 151.727 103.465 151.606 98.348 C 151.539 95.534,151.790 92.438,152.162 91.468 C 153.305 88.488,153.504 91.283,152.594 97.525 M304.950 91.964 C 304.950 92.445,304.034 93.078,302.914 93.371 C 301.242 93.808,301.087 93.651,302.045 92.496 C 303.352 90.921,304.950 90.628,304.950 91.964 M128.550 96.287 C 128.287 99.620,128.526 100.427,129.701 100.166 C 130.517 99.984,134.692 99.700,138.980 99.535 C 146.935 99.227,148.468 98.465,148.500 94.802 C 148.508 93.849,148.955 93.069,149.492 93.069 C 150.098 93.069,150.262 95.985,149.924 100.743 C 149.239 110.368,148.736 112.871,147.487 112.871 C 146.925 112.871,146.766 111.800,147.118 110.396 C 147.501 108.871,147.318 107.921,146.642 107.921 C 146.038 107.921,145.545 109.035,145.545 110.396 C 145.545 111.757,145.099 112.871,144.554 112.871 C 144.010 112.871,143.564 111.535,143.564 109.901 C 143.564 108.267,143.312 106.931,143.004 106.931 C 141.211 106.931,138.756 109.201,138.214 111.360 C 137.570 113.925,135.674 114.843,135.605 112.624 C 135.583 111.943,134.852 112.946,133.980 114.851 C 133.108 116.757,132.491 119.542,132.608 121.040 C 132.726 122.537,132.343 123.762,131.758 123.762 C 131.172 123.762,130.693 122.649,130.693 121.287 C 130.693 119.926,130.248 118.812,129.703 118.812 C 129.158 118.812,128.713 120.149,128.713 121.782 C 128.713 124.937,127.106 125.650,124.805 123.515 C 123.719 122.508,123.577 122.581,124.042 123.910 C 124.488 125.183,123.855 125.631,121.169 125.944 C 117.764 126.342,117.729 126.307,118.021 122.827 C 118.268 119.892,118.671 119.343,120.450 119.526 C 122.633 119.750,124.255 117.440,123.159 115.666 C 122.761 115.023,122.174 115.054,121.472 115.755 C 119.728 117.499,118.539 116.991,119.125 114.752 C 119.424 113.608,119.204 111.652,118.636 110.406 C 117.798 108.567,117.985 107.757,119.627 106.116 C 120.739 105.003,122.397 102.953,123.309 101.560 C 124.222 100.167,125.357 99.267,125.832 99.560 C 126.306 99.853,126.983 98.290,127.335 96.086 C 128.178 90.812,128.973 90.944,128.550 96.287 M288.671 93.483 C 289.727 94.256,290.330 95.149,290.010 95.468 C 289.206 96.273,283.168 94.071,283.168 92.972 C 283.168 91.601,286.522 91.912,288.671 93.483 M131.683 95.545 C 131.683 96.906,131.299 98.020,130.830 98.020 C 130.361 98.020,130.190 96.906,130.451 95.545 C 130.711 94.183,131.095 93.069,131.304 93.069 C 131.512 93.069,131.683 94.183,131.683 95.545 M284.158 95.545 C 286.490 96.877,286.511 96.962,284.527 96.995 C 283.369 97.014,281.866 96.361,281.188 95.545 C 279.650 93.691,280.916 93.691,284.158 95.545 M142.183 113.306 C 141.850 114.634,141.990 115.976,142.496 116.288 C 143.001 116.600,143.570 116.071,143.760 115.111 C 143.999 113.904,144.334 113.730,144.847 114.545 C 145.566 115.688,142.091 119.802,140.407 119.802 C 139.149 119.802,139.467 113.404,140.792 112.079 C 142.541 110.330,142.859 110.610,142.183 113.306 M116.894 116.715 C 116.315 117.797,115.842 120.493,115.842 122.707 C 115.842 125.059,115.373 126.733,114.714 126.733 C 113.948 126.733,113.766 125.206,114.148 121.983 C 114.797 116.502,117.139 110.552,117.635 113.125 C 117.806 114.018,117.473 115.633,116.894 116.715 M110.390 119.940 C 108.826 126.088,106.969 128.713,104.184 128.713 C 103.426 128.713,103.009 128.156,103.259 127.475 C 103.509 126.795,104.187 126.340,104.766 126.465 C 105.346 126.590,106.093 125.699,106.426 124.485 C 107.354 121.108,111.177 112.828,111.610 113.260 C 111.820 113.470,111.271 116.476,110.390 119.940 M112.828 120.424 C 111.281 127.068,110.923 128.084,110.334 127.495 C 110.053 127.214,110.582 124.254,111.510 120.916 C 113.491 113.789,114.456 113.429,112.828 120.424 M136.159 121.661 C 134.643 123.150,134.574 123.050,135.220 120.297 C 136.231 115.989,137.078 115.007,137.460 117.701 C 137.644 118.996,137.059 120.778,136.159 121.661 " stroke="none" fill="#000000" fill-rule="evenodd"></path></g></svg>