<?xml version="1.0" standalone="no"?>
<!DOCTYPE svg PUBLIC "-//W3C//DTD SVG 20010904//EN"
 "http://www.w3.org/TR/2001/REC-SVG-20010904/DTD/svg10.dtd">
<svg version="1.0" xmlns="http://www.w3.org/2000/svg"
 width="128.000000pt" height="42.000000pt" viewBox="0 0 128.000000 42.000000"
 preserveAspectRatio="xMidYMid meet">
<metadata>
Created by potrace 1.15, written by Peter Selinger 2001-2017
</metadata>
<g transform="translate(0.000000,42.000000) scale(0.100000,-0.100000)"
fill="#000000" stroke="none">
<path d="M790 280 c-22 -72 -43 -130 -46 -130 -3 0 -19 30 -35 66 -18 38 -34
63 -39 58 -5 -5 -31 -51 -58 -103 -27 -51 -52 -89 -55 -85 -2 5 -14 52 -26
104 -40 173 -41 174 -55 154 -8 -10 -18 -14 -26 -9 -8 5 -19 -1 -31 -16 -15
-20 -19 -21 -19 -6 0 14 -9 17 -45 17 -25 0 -45 -3 -45 -7 0 -3 14 -19 32 -34
29 -27 32 -27 45 -11 13 15 14 14 10 -11 -3 -17 1 -30 9 -35 12 -7 9 -20 -13
-70 -31 -73 -29 -75 -79 70 -20 57 -39 109 -43 116 -5 9 -24 -25 -51 -92 -24
-58 -46 -104 -48 -101 -3 3 -17 33 -31 66 -14 34 -30 61 -36 60 -8 -2 -85
-182 -85 -200 0 -18 23 26 50 97 17 45 35 80 39 77 5 -2 19 -32 31 -65 12 -33
26 -62 29 -65 6 -3 30 45 77 160 19 47 20 47 69 -100 20 -60 40 -114 44 -118
5 -4 32 48 62 117 30 69 57 126 60 126 4 0 14 -35 24 -77 9 -43 20 -91 25
-108 4 -16 11 -43 15 -60 6 -29 7 -29 22 -10 8 11 32 56 54 100 22 44 44 83
48 88 4 4 22 -24 40 -63 18 -38 36 -70 40 -70 3 0 22 52 41 116 19 64 37 117
41 119 3 2 25 -70 49 -161 27 -102 46 -160 51 -152 5 7 27 64 50 126 23 61 43
112 44 112 2 0 16 -32 31 -72 28 -71 28 -71 40 -42 6 16 19 69 29 117 10 48
22 84 25 80 4 -4 25 -74 46 -155 21 -82 41 -148 45 -148 8 0 -79 341 -91 353
-4 5 -18 -35 -30 -90 -35 -159 -33 -156 -59 -85 -13 35 -27 65 -32 68 -9 5
-28 -35 -67 -148 -15 -43 -30 -78 -33 -78 -3 0 -25 77 -49 170 -23 94 -44 170
-46 170 -2 0 -22 -58 -44 -130z"/>
</g>
</svg>
