<?xml version="1.0" standalone="no"?>
<!DOCTYPE svg PUBLIC "-//W3C//DTD SVG 20010904//EN"
 "http://www.w3.org/TR/2001/REC-SVG-20010904/DTD/svg10.dtd">
<svg version="1.0" xmlns="http://www.w3.org/2000/svg"
 width="140.000000pt" height="28.000000pt" viewBox="0 0 140.000000 28.000000"
 preserveAspectRatio="xMidYMid meet">
<metadata>
Created by potrace 1.15, written by Peter Selinger 2001-2017
</metadata>
<g transform="translate(0.000000,28.000000) scale(0.100000,-0.100000)"
fill="#000000" stroke="none">
<path d="M601 189 c-20 -43 -20 -44 -1 -51 28 -10 25 -28 -5 -28 -20 0 -25 -5
-25 -25 l0 -25 -252 0 c-138 0 -249 -2 -246 -6 9 -8 1268 -10 1268 -2 0 4
-145 9 -322 10 -315 3 -323 3 -323 23 0 14 -8 21 -27 23 -29 3 -40 32 -14 32
13 0 13 5 0 38 -24 58 -32 59 -53 11z"/>
</g>
</svg>
