<?xml version="1.0" standalone="no"?>
<!DOCTYPE svg PUBLIC "-//W3C//DTD SVG 20010904//EN"
 "http://www.w3.org/TR/2001/REC-SVG-20010904/DTD/svg10.dtd">
<svg version="1.0" xmlns="http://www.w3.org/2000/svg"
 width="158.000000pt" height="30.000000pt" viewBox="0 0 158.000000 30.000000"
 preserveAspectRatio="xMidYMid meet">
<metadata>
Created by potrace 1.15, written by Peter Selinger 2001-2017
</metadata>
<g transform="translate(0.000000,30.000000) scale(0.100000,-0.100000)"
fill="#000000" stroke="none">
<path d="M414 228 c10 -35 16 -43 34 -41 25 3 29 -9 7 -27 -13 -11 -13 -15 0
-33 22 -31 19 -45 -16 -63 -41 -21 -72 -7 -119 51 -45 57 -92 74 -140 51 -35
-16 -142 -101 -149 -118 -5 -14 53 18 70 38 23 29 101 74 127 74 16 0 42 -20
81 -60 51 -53 62 -60 96 -60 34 0 45 7 101 65 50 52 69 65 93 65 33 0 42 -8
104 -83 32 -40 43 -47 73 -47 48 0 64 11 112 74 67 88 117 86 183 -10 36 -53
80 -77 119 -63 14 6 50 37 81 69 77 84 100 83 184 -5 35 -36 68 -65 74 -65 6
0 11 1 11 3 0 8 -119 126 -137 136 -49 26 -105 4 -147 -59 -15 -22 -42 -48
-61 -57 -31 -15 -36 -15 -60 1 -14 9 -42 40 -62 67 -20 28 -47 55 -60 60 -36
13 -81 0 -111 -34 -86 -98 -101 -109 -129 -103 -16 4 -39 21 -53 39 -54 69
-87 97 -118 97 -16 0 -35 7 -42 15 -16 19 -34 19 -50 0 -7 -8 -16 -12 -22 -9
-5 3 -5 11 2 19 12 14 -20 39 -64 51 l-25 6 13 -44z"/>
</g>
</svg>
